<?xml version="1.0" encoding="iso-8859-1"?>
<!-- Generator: Adobe Illustrator 19.0.0, SVG Export Plug-In . SVG Version: 6.00 Build 0)  -->
<svg version="1.1" id="Capa_1" xmlns="http://www.w3.org/2000/svg" xmlns:xlink="http://www.w3.org/1999/xlink" x="0px" y="0px"
	 viewBox="0 0 512 512" style="enable-background:new 0 0 512 512;" xml:space="preserve">
<path style="fill:#57555C;" d="M15,512c-8.291,0-15-6.709-15-15v-30c0-8.291,6.709-15,15-15s15,6.709,15,15v30
	C30,505.291,23.291,512,15,512z"/>
<path style="fill:#3C3A41;" d="M375,512c-8.291,0-15-6.709-15-15v-30c0-8.291,6.709-15,15-15s15,6.709,15,15v30
	C390,505.291,383.291,512,375,512z"/>
<path style="fill:#BF6015;" d="M390,422v45c0,8.399-6.599,15-15,15H15c-8.401,0-15-6.601-15-15v-45l30-30h330L390,422z"/>
<path style="fill:#994C10;" d="M360,392l30,30v45c0,8.399-6.599,15-15,15H195v-90H360z"/>
<path style="fill:#BF6015;" d="M390,30v30l-30,30H30L0,60V30C0,13.5,13.5,0,30,0h330C376.5,0,390,13.5,390,30z"/>
<g>
	<path style="fill:#994C10;" d="M390,30v30l-30,30H195V0h165C376.5,0,390,13.5,390,30z"/>
	<rect y="60" style="fill:#994C10;" width="390" height="362"/>
</g>
<g>
	<rect x="195" y="60" style="fill:#713708;" width="195" height="362"/>
	<path style="fill:#713708;" d="M491.429,443.772L360,392l-30-30V103.573L360,90l131.429-51.772
		C501.282,34.287,512,41.544,512,52.155v377.689C512,440.456,501.282,447.713,491.429,443.772z"/>
</g>
<rect x="30" y="90" style="fill:#BF6015;" width="150" height="302"/>
<rect x="210" y="90" style="fill:#3C3A41;" width="150" height="302"/>
<g>
	<path style="fill:#FEC478;" d="M255,180c-8.291,0-15-6.709-15-15v-30c0-8.291,6.709-15,15-15c8.291,0,15,6.709,15,15v30
		C270,173.291,263.291,180,255,180z"/>
	<path style="fill:#FEC478;" d="M315,180c-8.291,0-15-6.709-15-15v-30c0-8.291,6.709-15,15-15s15,6.709,15,15v30
		C330,173.291,323.291,180,315,180z"/>
	<rect x="210" y="120" style="fill:#FEC478;" width="150" height="30"/>
</g>
<path style="fill:#FEDBAB;" d="M135,270c-8.291,0-15-6.709-15-15v-30c0-8.291,6.709-15,15-15s15,6.709,15,15v30
	C150,263.291,143.291,270,135,270z"/>
<g>
</g>
<g>
</g>
<g>
</g>
<g>
</g>
<g>
</g>
<g>
</g>
<g>
</g>
<g>
</g>
<g>
</g>
<g>
</g>
<g>
</g>
<g>
</g>
<g>
</g>
<g>
</g>
<g>
</g>
</svg>
